HIERARCHY
ROOT Model_Hips
{
	OFFSET 0.000000 96.915077 0.000000
	CHANNELS 6 Xposition Yposition Zposition Xrotation Yrotation Zrotation
	JOINT Model_Spine
	{
		OFFSET 0.000000 11.137703 -1.289900
		CHANNELS 3 Xrotation Yrotation Zrotation
		JOINT Model_Spine1
		{
			OFFSET 0.000000 12.993942 -1.504922
			CHANNELS 3 Xrotation Yrotation Zrotation
			JOINT Model_Spine2
			{
				OFFSET 0.000000 14.850220 -1.719911
				CHANNELS 3 Xrotation Yrotation Zrotation
				JOINT Model_Neck
				{
					OFFSET 0.000000 16.706543 -1.934903
					CHANNELS 3 Xrotation Yrotation Zrotation
					JOINT Model_Head
					{
						OFFSET 0.000000 10.471298 2.002100
						CHANNELS 3 Xrotation Yrotation Zrotation
						JOINT Model_HeadTop_End
						{
							OFFSET 0.000000 20.842606 3.985100
							CHANNELS 3 Xrotation Yrotation Zrotation
							End Site
							{
								OFFSET 0.000000 21.220154 0.000000
							}
						}
					}
				}
				JOINT Model_LeftShoulder
				{
					OFFSET 7.008500 14.768600 -1.919946
					CHANNELS 3 Xrotation Yrotation Zrotation
					JOINT Model_LeftArm
					{
						OFFSET 14.126271 -3.718048 0.029937
						CHANNELS 3 Xrotation Yrotation Zrotation
						JOINT Model_LeftForeArm
						{
							OFFSET 28.282801 0.000000 0.000000
							CHANNELS 3 Xrotation Yrotation Zrotation
							JOINT Model_LeftHand
							{
								OFFSET 26.204689 0.000000 0.000000
								CHANNELS 3 Xrotation Yrotation Zrotation
								End Site
								{
									OFFSET 26.204704 0.000000 0.000000
								}
							}
						}
					}
				}
				JOINT Model_RightShoulder
				{
					OFFSET -7.008500 14.768555 -1.949840
					CHANNELS 3 Xrotation Yrotation Zrotation
					JOINT Model_RightArm
					{
						OFFSET -14.126281 -3.718018 -0.029932
						CHANNELS 3 Xrotation Yrotation Zrotation
						JOINT Model_RightForeArm
						{
							OFFSET -28.283798 0.000000 -0.000001
							CHANNELS 3 Xrotation Yrotation Zrotation
							JOINT Model_RightHand
							{
								OFFSET -26.204193 0.000000 -0.000001
								CHANNELS 3 Xrotation Yrotation Zrotation
								End Site
								{
									OFFSET -26.204208 0.000000 -0.000001
								}
							}
						}
					}
				}
			}
		}
	}
	JOINT Model_LeftUpLeg
	{
		OFFSET 8.327700 -6.193199 -0.402800
		CHANNELS 3 Xrotation Yrotation Zrotation
		JOINT Model_LeftLeg
		{
			OFFSET 0.735802 -42.108742 -0.610721
			CHANNELS 3 Xrotation Yrotation Zrotation
			JOINT Model_LeftFoot
			{
				OFFSET -0.735806 -36.833748 -0.172876
				CHANNELS 3 Xrotation Yrotation Zrotation
				JOINT Model_LeftToeBase
				{
					OFFSET -0.565857 -11.977769 16.297714
					CHANNELS 3 Xrotation Yrotation Zrotation
					JOINT Model_LeftToe_End
					{
						OFFSET -0.111712 -0.312793 7.857784
						CHANNELS 3 Xrotation Yrotation Zrotation
						End Site
						{
							OFFSET -0.111712 -0.312793 7.857784
						}
					}
				}
			}
		}
	}
	JOINT Model_RightUpLeg
	{
		OFFSET -8.327700 -6.193199 -0.516500
		CHANNELS 3 Xrotation Yrotation Zrotation
		JOINT Model_RightLeg
		{
			OFFSET -0.735785 -42.108738 -0.434061
			CHANNELS 3 Xrotation Yrotation Zrotation
			JOINT Model_RightFoot
			{
				OFFSET 0.735776 -36.833748 -0.021630
				CHANNELS 3 Xrotation Yrotation Zrotation
				JOINT Model_RightToeBase
				{
					OFFSET 0.565817 -11.977745 15.903093
					CHANNELS 3 Xrotation Yrotation Zrotation
					JOINT Model_RightToe_End
					{
						OFFSET 0.111702 -0.312791 7.811342
						CHANNELS 3 Xrotation Yrotation Zrotation
						End Site
						{
							OFFSET 0.111702 -0.312791 7.811342
						}
					}
				}
			}
		}
	}
}
MOTION
Frames: 15
Frame Time: 0.016667
-0.362531 89.422028 1.947935 18.799792 -13.586090 1.275476 6.137623 6.538113 -0.238427 4.023125 2.640847 -0.073798 4.023211 2.634770 0.054221 -6.245260 0.291347 0.360717 -6.246476 0.307287 0.323550 0.000000 -0.000000 -0.000000 0.305193 -13.066429 -13.100198 42.800523 -21.749236 -55.743493 -0.000016 -37.342721 -0.000017 0.000000 -0.000001 0.000001 1.238900 23.426029 6.080402 -31.793014 8.744502 66.568178 0.000044 71.933906 -0.000051 -0.000000 0.000001 0.000002 -65.523350 7.728328 16.199276 122.856129 7.441107 0.493599 31.669825 1.636589 3.947932 -1.977007 -0.000001 -0.000002 0.000001 -0.000000 0.000000 -11.089644 -6.003564 4.219694 32.674402 6.244354 1.243174 -31.680350 8.645275 -6.389238 -14.117551 -0.000000 0.000002 0.000001 -0.000000 0.000000 
-0.182728 89.031418 10.118105 19.318087 -13.310159 3.950271 5.605424 8.413421 -2.581918 3.784201 3.294892 -0.675381 3.795485 3.293189 -0.486090 -5.248483 -0.208084 -0.700967 -5.247963 -0.242449 -0.725863 0.000000 -0.000000 -0.000000 0.850813 -12.596224 -8.554019 52.622038 -21.843717 -55.403793 0.000013 -47.672231 0.000008 0.000003 -0.000001 0.000001 2.516685 23.809536 -0.092506 -39.507802 9.499659 71.153229 0.000111 78.934024 -0.000077 0.000000 0.000000 0.000001 -72.908957 6.493892 13.226637 117.821596 8.108322 0.502630 26.340374 1.042576 2.714719 -0.422927 0.000003 0.000000 0.000000 -0.000001 -0.000000 -2.364016 -8.461422 -0.286926 23.393430 3.932662 1.081095 -29.665031 12.852815 -2.297310 -19.973995 0.000004 0.000002 0.000001 -0.000000 0.000000 
-0.170443 88.818176 18.373455 19.082642 -10.806520 7.764621 6.015407 9.831239 -6.465455 3.899795 3.830275 -1.325872 3.933921 3.837730 -1.073162 -3.852888 -0.932788 -1.750287 -3.846014 -1.012540 -1.752843 -0.000000 0.000000 -0.000000 1.440415 -14.386412 -3.628041 59.423821 -21.183091 -54.802272 0.000017 -55.752840 0.000003 -0.000000 -0.000001 -0.000001 3.536646 22.810458 -6.649619 -44.418100 9.842140 72.534710 0.000111 87.797417 -0.000045 -0.000001 -0.000001 -0.000001 -77.874511 6.905812 6.771371 109.312178 9.636955 0.616836 21.224258 2.199036 0.434591 2.984927 -0.000003 -0.000002 -0.000001 -0.000001 -0.000000 5.436365 -13.328020 -5.495142 14.855219 1.383813 1.047336 -23.547058 14.801920 0.875031 -27.646319 0.000002 -0.000001 0.000000 0.000001 0.000000 
-0.411140 88.220306 26.238251 18.734355 -7.222490 12.568784 7.314464 10.771731 -11.842691 4.308605 4.126534 -1.967358 4.365356 4.162266 -1.642399 -2.370871 -1.753914 -2.362205 -2.354799 -1.865983 -2.328027 -0.000001 -0.000001 0.000001 2.173341 -17.415934 0.737094 64.419380 -17.721033 -53.412629 0.000037 -64.333620 0.000039 0.000001 0.000000 0.000000 1.846768 20.412295 -6.034563 -46.885564 13.258223 67.722780 -0.000046 98.492448 0.000051 0.000000 -0.000000 -0.000003 -81.400180 8.278680 -1.498555 98.394776 9.784813 0.720502 16.545404 5.400472 -1.664844 5.973198 -0.000001 -0.000005 -0.000002 0.000000 -0.000000 5.032922 -17.070070 -12.247557 20.548310 -0.759311 0.844556 -17.798906 12.691315 2.649255 -33.180130 0.000004 0.000002 0.000000 0.000000 0.000000 
-0.676582 88.007256 34.124382 18.809907 -3.441955 15.042800 8.163989 11.295335 -14.917722 4.579295 4.322854 -2.310748 4.626325 4.410152 -1.954390 -0.774848 -2.578822 -2.406378 -0.752856 -2.688491 -2.333561 -0.000000 -0.000000 -0.000000 2.824988 -19.937525 3.611205 64.916590 -13.579700 -52.880332 -0.000026 -68.902218 -0.000019 -0.000003 -0.000001 0.000001 0.641180 17.154302 -5.558397 -48.043728 14.704067 63.439473 0.000003 108.108125 0.000000 0.000003 0.000002 0.000001 -82.925245 8.288046 -8.196088 84.935144 9.905482 0.657125 12.061440 6.511416 -1.304503 7.043245 0.000001 -0.000000 -0.000001 0.000001 -0.000000 5.380880 -17.412464 -14.575940 23.732466 -2.307814 0.434589 -2.611126 6.102047 2.285777 -44.529968 -0.851149 3.012202 0.000001 0.000001 -0.000000 
-0.979837 88.410866 42.474396 19.301367 -0.638769 14.922848 8.164167 11.606167 -15.644664 4.481953 4.364335 -2.425219 4.502267 4.484406 -2.102941 0.703097 -3.167703 -1.837719 0.724356 -3.246810 -1.742199 0.000004 0.000002 -0.000002 2.788936 -20.766640 3.596696 61.532443 -8.758223 -52.848035 0.000010 -69.500747 0.000020 0.000003 -0.000001 0.000001 0.233389 14.900177 -5.247921 -46.019455 14.125276 60.605744 0.000027 116.080513 -0.000044 0.000002 0.000000 -0.000000 -81.232068 7.191031 -11.780072 69.759229 9.917947 0.407922 8.184123 4.445886 -0.958021 7.122564 -0.000002 -0.000002 -0.000001 -0.000000 -0.000001 17.181208 -16.838447 -9.009911 3.175758 -3.860490 -0.112121 28.154289 1.532391 -1.947811 -54.606871 -6.340616 7.397976 -0.000000 0.000001 -0.000000 
-1.246183 89.439972 51.635426 19.616250 1.171748 12.021642 7.371564 11.310709 -13.647404 4.062468 4.125070 -2.334182 4.059941 4.238876 -2.095607 1.672287 -3.325631 -1.035470 1.685675 -3.368264 -0.948619 0.000002 0.000001 0.000000 2.502808 -19.630280 2.035641 54.510439 -5.937957 -53.858326 -0.000023 -65.336333 -0.000008 -0.000003 -0.000002 0.000001 0.562783 14.835570 -5.005884 -38.865689 12.274009 59.206873 0.000031 121.241459 -0.000026 0.000001 0.000001 -0.000002 -75.569992 5.988954 -12.137875 54.126568 9.787536 0.107697 6.431003 0.433757 -1.837962 6.614239 -0.000002 -0.000003 0.000000 0.000000 0.000000 19.886722 -13.176593 -4.096143 6.516605 -7.500794 -0.579340 39.020239 1.006745 -0.727610 -3.298368 -0.000001 0.000000 -0.000000 0.000001 -0.000001 
-1.486656 90.668556 61.470913 19.160791 2.511730 7.698962 6.594782 9.918403 -10.072056 3.605387 3.569773 -2.131854 3.595673 3.654453 -1.983165 1.783365 -3.083271 -0.382288 1.787153 -3.103635 -0.325865 -0.000002 -0.000001 0.000000 1.670197 -17.456652 -2.287403 46.522082 -3.218328 -54.164370 0.000045 -59.392682 0.000039 -0.000000 0.000000 0.000000 1.330885 16.580247 -4.833827 -28.074360 10.532069 59.274765 0.000007 121.509776 -0.000008 0.000001 -0.000001 0.000000 -66.710656 5.996756 -10.561092 39.982230 9.637088 -0.034568 7.002362 -2.764375 -3.040460 4.059410 -0.000002 0.000000 0.000000 0.000000 -0.000001 19.416843 -10.982709 1.454359 17.249190 -5.881994 -0.529818 44.146870 2.189258 2.608345 -0.290185 0.000011 -0.000000 -0.000001 -0.000000 -0.000002 
-1.738648 91.316101 70.932983 18.222793 3.072699 5.052816 6.848521 8.033704 -8.146302 3.573454 2.827743 -1.958590 3.568270 2.894029 -1.861015 0.958568 -2.648414 0.042831 0.957328 -2.658895 0.073223 0.000000 -0.000000 -0.000001 0.870532 -15.526246 -7.694356 38.350491 -0.894571 -52.909360 -0.000030 -54.823982 -0.000000 0.000000 -0.000000 0.000000 2.181575 18.665638 -4.733424 -17.910269 10.198321 60.998849 -0.000006 115.376143 0.000005 0.000001 0.000000 -0.000000 -57.728547 7.762354 -8.859042 30.366246 9.614927 -0.020105 7.539194 -1.879321 -3.817257 0.803543 -0.000001 -0.000001 0.000000 -0.000000 0.000001 12.734108 -11.548137 3.729819 39.736552 -1.830382 -0.236291 40.652504 3.618046 6.137239 1.700112 -0.000005 -0.000006 0.000001 -0.000000 -0.000000 
-1.771048 91.606453 80.031303 17.194564 3.888061 3.207043 7.242044 5.431836 -6.633471 3.717520 2.121032 -1.828356 3.715170 2.183623 -1.758921 -0.251968 -2.235897 0.282813 -0.255898 -2.241050 0.299219 -0.000000 0.000000 -0.000000 0.226558 -14.419240 -13.064151 29.776213 -0.662056 -50.644968 0.000023 -51.157984 0.000026 0.000002 0.000000 -0.000000 2.883017 19.961380 -4.622158 -10.411882 11.377131 64.023646 0.000040 102.330181 -0.000043 -0.000001 0.000001 0.000000 -50.482396 10.299862 -7.506990 27.923031 9.710428 0.095264 4.543925 0.137178 -3.134314 0.296505 0.000002 0.000003 0.000000 0.000000 -0.000001 5.683821 -14.032006 4.255191 60.281713 -0.358960 -0.170060 36.926748 4.087195 7.844389 3.798616 0.000006 -0.000001 0.000002 -0.000001 -0.000001 
-1.634545 91.645065 88.913925 16.555497 4.390717 2.679966 7.244186 2.872162 -6.264533 3.790743 1.454680 -1.864665 3.792228 1.520707 -1.815577 -1.244912 -1.898654 0.494518 -1.248915 -1.899102 0.507952 -0.000001 -0.000000 -0.000000 -0.265178 -13.691827 -17.710122 21.008823 -3.229078 -47.628159 -0.000008 -47.680953 -0.000007 0.000003 -0.000000 -0.000000 2.581556 20.555094 -1.986501 -5.571487 13.210609 65.874586 0.000138 83.964827 -0.000098 -0.000001 -0.000000 0.000001 -44.910990 12.479028 -7.271330 31.050330 9.940199 0.183633 -3.811169 1.245971 0.666959 0.037522 -0.000019 0.034435 -0.000000 -0.000001 -0.000001 -3.025240 -16.315681 2.037272 78.940376 -1.967773 -0.311195 34.182515 3.853791 8.187811 5.007275 -0.000016 -0.000008 0.000003 -0.000002 -0.000000 
-1.357557 91.321373 97.474731 16.584937 4.769463 3.035786 6.567317 0.554320 -6.573386 3.706190 0.644640 -1.982282 3.714083 0.723004 -1.952387 -1.768224 -1.594485 0.723483 -1.771587 -1.589110 0.741080 0.000001 -0.000000 0.000000 -0.595172 -12.932401 -21.284743 12.577853 -8.565089 -44.571731 0.000016 -44.732241 -0.000009 0.000001 -0.000002 0.000000 2.058785 20.938167 1.067974 -3.725196 13.032212 68.109198 0.000015 62.021594 -0.000015 -0.000001 0.000002 0.000001 -40.686105 13.451557 -8.264601 36.618147 10.291135 0.080673 -14.527012 0.479723 6.415804 0.123164 -0.000012 0.000002 0.000000 -0.000000 -0.000000 -13.997739 -17.115559 -1.874104 95.472842 -3.773054 -0.445838 32.467789 3.225157 7.199625 6.201748 -0.000003 -0.000002 0.000002 -0.000002 -0.000002 
-1.125440 90.734306 105.585381 17.182936 5.717811 3.704854 5.566964 -1.640935 -6.958868 3.596750 -0.404434 -2.037166 3.617192 -0.305227 -2.032813 -2.097826 -1.298360 0.940533 -2.099350 -1.284087 0.966664 -0.000001 -0.000000 0.000000 -0.770397 -12.482657 -23.333323 4.706893 -15.254413 -42.156785 0.000016 -44.848084 0.000013 -0.000003 0.000000 -0.000001 1.533723 21.444393 4.067152 -4.245985 9.082193 69.269504 0.000029 39.033121 -0.000015 0.000003 -0.000000 -0.000000 -37.328285 12.592770 -9.203124 41.668187 10.323791 -0.077135 -22.045899 0.102457 4.751209 -2.378938 0.000018 -0.000001 0.000000 0.000003 -0.000000 -26.835549 -16.477288 -5.900025 108.968353 -3.791808 -0.438130 31.366288 2.321333 4.486865 7.801843 -0.000008 -0.000007 0.000003 -0.000000 -0.000001 
-0.975647 90.145638 113.452576 17.864047 7.616738 3.891620 4.838375 -3.815140 -6.713864 3.587556 -1.499210 -1.899403 3.622499 -1.384551 -1.936209 -2.560055 -1.017906 1.054555 -2.559070 -0.994729 1.088771 -0.000000 -0.000000 -0.000000 -0.842103 -13.097278 -23.315833 -3.816670 -21.390911 -41.529558 -0.000010 -49.180313 -0.000018 -0.000001 -0.000001 -0.000001 1.060486 21.820173 6.709614 -5.710356 3.555047 67.416235 -0.000006 16.848408 -0.000026 0.000001 0.000000 0.000001 -33.352377 10.442757 -10.265674 44.157962 10.377795 -0.210194 -27.607179 -0.521847 2.908051 -4.409766 0.000001 0.000001 0.000000 -0.000000 -0.000000 -40.086052 -15.066366 -8.696752 118.118095 -2.819772 -0.351635 30.213205 1.212897 0.011020 8.011768 0.000005 0.000003 -0.000000 -0.000000 -0.000001 
-0.857701 89.765938 121.404076 18.104931 9.621875 2.964652 4.945750 -5.788632 -5.309967 3.844218 -2.514486 -1.463321 3.892239 -2.398798 -1.544455 -3.254798 -0.640413 1.022116 -3.251404 -0.610676 1.062422 0.000001 -0.000000 -0.000000 -0.784407 -15.156007 -20.684600 -15.001800 -25.099554 -43.995786 -0.000017 -55.954453 -0.000021 -0.000002 -0.000001 0.000001 0.821953 21.642288 8.055668 -2.854164 -0.871441 63.620869 0.000005 6.613352 0.000007 0.000001 -0.000000 0.000001 -27.672848 8.010269 -9.711921 43.704249 10.231491 -0.342936 -32.017615 -1.352687 0.734087 -5.683800 0.000008 0.000002 0.000000 0.000002 -0.000000 -51.794486 -13.333098 -9.146783 122.239281 -3.042884 -0.330395 27.935933 0.100290 -5.538083 5.112032 0.000000 0.000004 -0.000002 0.000000 0.000001 
